<?xml version="1.0" encoding="utf-8" ?>
<svg baseProfile="full" height="200mm" version="1.1" viewBox="0,0,200,200" width="200mm" xmlns="http://www.w3.org/2000/svg" xmlns:ev="http://www.w3.org/2001/xml-events" xmlns:xlink="http://www.w3.org/1999/xlink"><defs /><rect fill="#1a1a1a" height="200" width="200" x="0" y="0" /><text alignment-baseline="middle" fill="#e1ed5e" style="dominant-baseline: central; font-size:9.0px; font-family:Arial;" text-anchor="middle" x="100.0" y="100.0">2023</text><line stroke="#e1ed5e" stroke-width="0.3" x1="100.0" x2="100.0" y1="15.0" y2="10.0" /><path d="M 100.0 14.0 a86.0,86.0 0 0,1 42.46469731375804,11.215312516191453" fill="none" id="id37" stroke="none" /><text fill="#e1ed5e" style="font-size:6.75px; font-family:Arial;" text-anchor="middle"><textPath startOffset="22.20632615414155" xlink:href="#id37">January</textPath></text><line stroke="#e1ed5e" stroke-width="0.3" x1="143.23703022742887" x2="145.7803849466894" y1="26.81831364943548" y2="22.513508569990506" /><path d="M 143.74570117128098 25.957352633546492 a86.0,86.0 0 0,1 28.547481713284135,27.462654790039103" fill="none" id="id38" stroke="none" /><text fill="#e1ed5e" style="font-size:6.75px; font-family:Arial;" text-anchor="middle"><textPath startOffset="19.985693538727396" xlink:href="#id38">February</textPath></text><line stroke="#e1ed5e" stroke-width="0.3" x1="172.23445277983987" x2="176.4835382374775" y1="55.19839476539836" y2="52.563006222186495" /><path d="M 173.08426987136738 54.67131705675599 a86.0,86.0 0 0,1 12.851231095245387,41.99856678651699" fill="none" id="id39" stroke="none" /><text fill="#e1ed5e" style="font-size:6.75px; font-family:Arial;" text-anchor="middle"><textPath startOffset="22.20632615414155" xlink:href="#id39">March</textPath></text><line stroke="#e1ed5e" stroke-width="0.3" x1="184.98032266829074" x2="189.97916517819016" y1="98.17113171792111" y2="98.06355123074" /><path d="M 185.9800911702706 98.14961562048488 a86.0,86.0 0 0,1 -9.607161424134198,41.387399972396054" fill="none" id="id40" stroke="none" /><text fill="#e1ed5e" style="font-size:6.75px; font-family:Arial;" text-anchor="middle"><textPath startOffset="21.466115282336823" xlink:href="#id40">April</textPath></text><path d="M 120.99980553446 99.90962569577887 l 31.294171441846657 -0.13467691239295929 a52.2944612368135,52.2944612368135 0 0,0 -0.003874030242385255,0.9001881942644235 l -31.29185311431477 -0.404020760075149" fill="#c1ff1e" stroke="none" /><path d="M 120.49622156327973 104.57218783832717 l 53.000949190338304 11.823169190462442 a75.30366419297249,75.30366419297249 0 0,0 -0.29310851878520305,1.2627038275640095 l -52.78958010562255 -12.733741675375017" fill="#40ffc8" stroke="none" /><line stroke="#e1ed5e" stroke-width="0.3" x1="174.80103733775053" x2="179.2010983576182" y1="140.37084112569926" y2="142.7455964860345" /><path d="M 175.68104954172406 140.8457921977663 a86.0,86.0 0 0,1 -30.038265399797805,32.042727171017184" fill="none" id="id41" stroke="none" /><text fill="#e1ed5e" style="font-size:6.75px; font-family:Arial;" text-anchor="middle"><textPath startOffset="22.206326154141568" xlink:href="#id41">May</textPath></text><path d="M 118.30583269289576 110.29060199501025 l 45.56707852500074 25.615478795353546 a73.27342918939593,73.27342918939593 0 0,0 -0.6275276178468011,1.0941472961762193 l -45.119398911001554 -26.39604593738808" fill="#3dffae" stroke="none" /><path d="M 117.94076556474637 110.91462005526583 l 44.62519096180109 27.148618741154994 a73.23461656727085,73.23461656727085 0 0,0 -0.6644659074487393,1.071330613358244 l -44.15126041468439 -27.912745685878512" fill="#3dffae" stroke="none" /><path d="M 117.55443506779139 111.5257021239791 l 21.950119884957232 14.41177357190097 a47.25846492946109,47.25846492946109 0 0,0 -0.4523240330418108,0.6761630572667874 l -21.6987927465047 -14.787473543373563" fill="#fff717" stroke="none" /><path d="M 117.35343817320211 111.8261652097733 l 44.79575552650524 30.52778361645627 a75.20890411845272,75.20890411845272 0 0,0 -0.7382616794432248,1.063521011395866 l -44.26363293989988 -31.294345890039157" fill="#40ffc7" stroke="none" /><path d="M 117.14729908036423 112.12312394758627 l 43.59589668963302 30.822257003717024 a74.39113910543901,74.39113910543901 0 0,0 -0.7482338974888686,1.0392314412260002 l -43.05888299976855 -31.568122050394155" fill="#3fffbd" stroke="none" /><path d="M 116.93607887273984 112.41649034213515 l 34.07003746837609 24.978053914426432 a63.24536223597266,63.24536223597266 0 0,0 -0.6512427151103233,0.8724460414537729 l -33.63503348657068 -25.56081283538952" fill="#37ff2e" stroke="none" /><path d="M 116.71984013943494 112.70617746262583 l 41.78210910439129 31.752151253590394 a73.47803112200513,73.47803112200513 0 0,0 -0.7739447413536256,1.000427907000598 l -41.229357545819596 -32.466657154704244" fill="#3dffb1" stroke="none" /><path d="M 116.498646956653 112.99209946851258 l 20.3198313098875 16.001146654938204 a46.86372437865677,46.86372437865677 0 0,0 -0.5045261264958364,0.6294739172418801 l -20.041387271336813 -16.348548405758336" fill="#fff116" stroke="none" /><path d="M 115.56566222782051 114.09645910891815 l 40.221959391639615 36.42551133041022 a75.26438881056848,75.26438881056848 0 0,0 -0.877918209007397,0.9528068249254327 l -39.5889947746365 -37.11246941013698" fill="#40ffc7" stroke="none" /><path d="M 115.32070863581623 114.36230785411682 l 27.72115761103255 25.987035531201556 a58.997218253388496,58.997218253388496 0 0,0 -0.7009247352898,0.7349167826911923 l -27.269726324363784 -26.460359430475258" fill="#6aff28" stroke="none" /><path d="M 115.07121518719521 114.62390073753431 l 38.83344821611655 37.68086945577974 a75.10993091196218,75.10993091196218 0 0,0 -0.9083271955487534,0.9201306535027521 l -38.17908039551226 -38.34374060326316" fill="#40ffc5" stroke="none" /><line stroke="#e1ed5e" stroke-width="0.3" x1="143.8653032363475" x2="146.44561519142675" y1="172.8068346515853" y2="177.08958963109032" /><path d="M 144.38136562736335 173.6633856474863 a86.0,86.0 0 0,1 -40.68145358897372,12.25698825130547" fill="none" id="id42" stroke="none" /><text fill="#e1ed5e" style="font-size:6.75px; font-family:Arial;" text-anchor="middle"><textPath startOffset="21.466115282336833" xlink:href="#id42">June</textPath></text><path d="M 110.5260780823613 118.17145234162733 l 27.08550702404411 46.75844091076887 a75.03680678163178,75.03680678163178 0 0,0 -1.1232339399096039,0.6378015456857823 l -26.276624317213308 -47.217745622249275" fill="#40ffc5" stroke="none" /><path d="M 103.7750983002368 120.6578951692458 l 5.282553350871128 28.906911732973537 a50.3856243058187,50.3856243058187 0 0,0 -0.8545186628352481,0.1485690228153731 l -4.7841857165638295 -28.993559334309914" fill="#dbff1b" stroke="none" /><path d="M 103.41894727170886 120.7198165907248 l 8.497204596484423 51.49553554975484 a73.19188315735101,73.19188315735101 0 0,0 -1.2448340827981712,0.1944174824271381 l -7.609534650077734 -51.63417133952909" fill="#3dffad" stroke="none" /><line stroke="#e1ed5e" stroke-width="0.3" x1="102.19456741930631" x2="102.32365962044197" y1="184.97166512339345" y2="189.96999836594603" /><path d="M 102.22038585953345 185.97133177190398 a86.0,86.0 0 0,1 -42.740103519485714,-10.115201625700543" fill="none" id="id43" stroke="none" /><text fill="#e1ed5e" style="font-size:6.75px; font-family:Arial;" text-anchor="middle"><textPath startOffset="22.20632615414155" xlink:href="#id43">July</textPath></text><line stroke="#e1ed5e" stroke-width="0.3" x1="58.666819895761336" x2="56.23545636021788" y1="174.27360380694188" y2="178.64263932499728" /><path d="M 58.180547188652646 175.14741091055294 a86.0,86.0 0 0,1 -31.652253787137756,-30.449443065178592" fill="none" id="id44" stroke="none" /><text fill="#e1ed5e" style="font-size:6.75px; font-family:Arial;" text-anchor="middle"><textPath startOffset="22.20632615414155" xlink:href="#id44">August</textPath></text><line stroke="#e1ed5e" stroke-width="0.3" x1="26.63291911575756" x2="22.317208475507996" y1="142.92168965132927" y2="145.44649492493687" /><path d="M 25.769776987707644 143.4266507060508 a86.0,86.0 0 0,1 -11.730757126820373,-40.83630448921669" fill="none" id="id45" stroke="none" /><text fill="#e1ed5e" style="font-size:6.75px; font-family:Arial;" text-anchor="middle"><textPath startOffset="21.46611528233685" xlink:href="#id45">September</textPath></text><path d="M 81.18737489456691 109.33194174019688 l -46.717342519628936 23.173986416392978 a73.14924485094195,73.14924485094195 0 0,0 -0.5498271467054154,-1.1328067756345643 l 47.109322922949076 -22.366390684793128" fill="#3dffad" stroke="none" /><path d="M 81.02952815118164 109.00673069616217 l -47.65519785806612 22.625559174304918 a73.75351941663611,73.75351941663611 0 0,0 -0.534626559648034,-1.1515380468703031 l 48.03759903455398 -21.80190106015579" fill="#3effb5" stroke="none" /><path d="M 80.87730276802145 108.67885076344099 l -47.71121341494865 21.653770697083843 a73.39509205000658,73.39509205000658 0 0,0 -0.5122240512808013,-1.1549300124379234 l 48.076878550960735 -20.829292348153224" fill="#3dffb0" stroke="none" /><path d="M 80.58989483394504 108.01547362559985 l -48.387861469743406 19.981943636667943 a73.3513439093406,73.3513439093406 0 0,0 -0.47188451442186646,-1.1711786658276997 l 48.72464859842266 -19.14606560299744" fill="#3dffaf" stroke="none" /><path d="M 80.45479744820244 107.68017299344265 l -38.99154389753167 15.321499054350552 a62.89378031146872,62.89378031146872 0 0,0 -0.3872631224886684,-1.0110218107583129 l 39.24950129961385 -14.64805367675908" fill="#3bff2e" stroke="none" /><path d="M 80.32549172779594 107.34259656027581 l -40.06561983885085 14.952632022305076 a63.76488159069053,63.76488159069053 0 0,0 -0.3749245655392798,-1.031631380670533 l 40.317068665395354 -14.260752844628428" fill="#31ff2f" stroke="none" /><path d="M 80.20201598880116 107.00284435728193 l -59.3939520335965 21.008533071845783 a84.0,84.0 0 0,0 -0.4704366762270862,-1.3673091876428125 l 59.746779540766816 -19.983051181113673" fill="#4dd2ff" stroke="none" /><path d="M 80.0844068197444 106.66101706037122 l -29.98277143994694 10.028109646098649 a52.615337516690765,52.615337516690765 0 0,0 -0.279882900762372,-0.8613909960132112 l 30.15094659172556 -9.510519750107633" fill="#bcff1f" stroke="none" /><path d="M 79.97269907076064 106.31721596034903 l -30.221108365768696 9.532650894007539 a52.68890695373631,52.68890695373631 0 0,0 -0.2653845591248038,-0.8672920942676899 l 30.38071969739963 -9.0110318271878" fill="#bbff1f" stroke="none" /><line stroke="#e1ed5e" stroke-width="0.3" x1="15.007084014347285" x2="10.007500721073583" y1="101.09737516637583" y2="101.16192664675087" /><path d="M 14.007167355692545 101.11028546245083 a86.0,86.0 0 0,1 10.666146001902534,-42.60595125391555" fill="none" id="id46" stroke="none" /><text fill="#e1ed5e" style="font-size:6.75px; font-family:Arial;" text-anchor="middle"><textPath startOffset="22.20632615414155" xlink:href="#id46">October</textPath></text><path d="M 79.21141760316559 97.0276538004421 l -36.111853720038475 -5.163263618210545 a57.47910731211214,57.47910731211214 0 0,0 0.14847156295485686,-0.9782420939170986 l 36.01762626364432 5.784104824519735" fill="#7dff26" stroke="none" /><path d="M 79.26566170972629 96.67025291283419 l -41.23478519834417 -6.621933335027199 a62.76311185061678,62.76311185061678 0 0,0 0.18048321380270368,-1.0652221444325283 l 41.11469012302124 7.330741267775556" fill="#3cff2e" stroke="none" /><path d="M 79.32604984820605 96.31383870115002 l -41.12035213645595 -7.331750803671858 a62.768863159933865,62.768863159933865 0 0,0 0.19881073781352177,-1.0620549111179236 l 40.98805567473257 8.038483792252354" fill="#3cff2e" stroke="none" /><path d="M 79.3925641242962 95.95851677861259 l -30.963082449235635 -6.07240895741703 a52.55291785721698,52.55291785721698 0 0,0 0.1817347569767882,-0.8862032168040749 l 30.853968396343852 6.604487830384508" fill="#bdff1f" stroke="none" /><path d="M 79.71946130924805 94.55025226153421 l -10.426224004847853 -2.8017150608069246 a31.796099030724847,31.796099030724847 0 0,0 0.14658490621696565,-0.52734389941778 l 10.376452328064527 2.9807702636436475" fill="#ff0000" stroke="none" /><path d="M 79.91906864156998 93.8553929516997 l -17.208452972587313 -5.265651255827574 a38.9960533689403,38.9960533689403 0 0,0 0.2019336646930818,-0.6401849004270871 l 17.11526382412603 5.561086322681075" fill="#ff780b" stroke="none" /><path d="M 80.38941819471856 92.48833698450439 l -20.082885420005773 -7.692574812505853 a42.505766529911924,42.505766529911924 0 0,0 0.2675969763084421,-0.6810051165074866 l 19.94749489381564 8.037128933909104" fill="#ffaf10" stroke="none" /><path d="M 81.26839172434947 90.50648371742162 l -46.891022035373254 -23.765214104878975 a73.56950968929232,73.56950968929232 0 0,0 0.5822170722569512,-1.1246580676283515 l 46.47499552995619 24.56884489476766" fill="#3effb2" stroke="none" /><line stroke="#e1ed5e" stroke-width="0.3" x1="26.266209847984243" x2="21.928928074336255" y1="57.711370442889674" y2="55.22380399835377" /><path d="M 25.398753493254645 57.213857153982495 a86.0,86.0 0 0,1 29.58750427330803,-30.492523968695096" fill="none" id="id47" stroke="none" /><text fill="#e1ed5e" style="font-size:6.75px; font-family:Arial;" text-anchor="middle"><textPath startOffset="21.46611528233685" xlink:href="#id47">November</textPath></text><path d="M 81.96595687620814 89.24020034530311 l -38.74408531101357 -23.116202666778214 a66.1161054648854,66.1161054648854 0 0,0 0.5915319855092516,-0.9723230513141177 l 38.34043752721811 23.77969349129941" fill="#33ff4f" stroke="none" /><path d="M 82.7489923806493 88.02491185347247 l -26.12320844059508 -18.1338812577727 a52.80030925481351,52.80030925481351 0 0,0 0.5247027719967654,-0.7421548603003468 l 25.807193048794435 18.580862618404833" fill="#baff1f" stroke="none" /><line stroke="#e1ed5e" stroke-width="0.3" x1="56.762969772571076" x2="54.21961505331055" y1="26.818313649435495" y2="22.513508569990535" /><path d="M 56.25429882871897 25.957352633546506 a86.0,86.0 0 0,1 42.265352541879196,-11.944610805530505" fill="none" id="id48" stroke="none" /><text fill="#e1ed5e" style="font-size:6.75px; font-family:Arial;" text-anchor="middle"><textPath startOffset="22.20632615414155" xlink:href="#id48">December</textPath></text></svg>