<?xml version="1.0" encoding="utf-8" ?>
<svg baseProfile="full" height="200mm" version="1.1" viewBox="0,0,200,200" width="200mm" xmlns="http://www.w3.org/2000/svg" xmlns:ev="http://www.w3.org/2001/xml-events" xmlns:xlink="http://www.w3.org/1999/xlink"><defs /><rect fill="#1a1a1a" height="200" width="200" x="0" y="0" /><text alignment-baseline="middle" fill="#e1ed5e" style="dominant-baseline: central; font-size:9.0px; font-family:Arial;" text-anchor="middle" x="100.0" y="100.0">2022</text><line stroke="#e1ed5e" stroke-width="0.3" x1="100.0" x2="100.0" y1="15.0" y2="10.0" /><path d="M 100.0 14.0 a86.0,86.0 0 0,1 42.46469731375804,11.215312516191453" fill="none" id="id25" stroke="none" /><text fill="#e1ed5e" style="font-size:6.75px; font-family:Arial;" text-anchor="middle"><textPath startOffset="22.20632615414155" xlink:href="#id25">January</textPath></text><line stroke="#e1ed5e" stroke-width="0.3" x1="143.23703022742887" x2="145.7803849466894" y1="26.81831364943548" y2="22.513508569990506" /><path d="M 143.74570117128098 25.957352633546492 a86.0,86.0 0 0,1 28.547481713284135,27.462654790039103" fill="none" id="id26" stroke="none" /><text fill="#e1ed5e" style="font-size:6.75px; font-family:Arial;" text-anchor="middle"><textPath startOffset="19.985693538727396" xlink:href="#id26">February</textPath></text><path d="M 116.82858285166822 87.43820079747576 l 45.11825554542078 -33.67879942864996 a77.30202939874482,77.30202939874482 0 0,0 0.7867778005277413,1.0731640357211627 l -45.69129595846215 32.8971729492573" fill="#3effb9" stroke="none" /><line stroke="#e1ed5e" stroke-width="0.3" x1="172.23445277983987" x2="176.4835382374775" y1="55.19839476539836" y2="52.563006222186495" /><path d="M 173.08426987136738 54.67131705675599 a86.0,86.0 0 0,1 12.851231095245387,41.99856678651699" fill="none" id="id27" stroke="none" /><text fill="#e1ed5e" style="font-size:6.75px; font-family:Arial;" text-anchor="middle"><textPath startOffset="22.20632615414155" xlink:href="#id27">March</textPath></text><path d="M 118.89224826269711 90.83032412892265 l 52.65846260154862 -25.558685615986835 a79.5334100661797,79.5334100661797 0 0,0 0.5871906450754643,1.2367732508134273 l -53.090611440465835 24.648469949532867" fill="#43ffe2" stroke="none" /><path d="M 119.34039704204932 91.81776055985345 l 50.11531370083351 -21.20202059072241 a75.41571780710393,75.41571780710393 0 0,0 0.49551112025194116,1.199919481279575 l -50.47284650797165 20.33622653898953" fill="#3aff96" stroke="none" /><path d="M 119.47837535516314 92.15188598940014 l 39.063204907913445 -15.739119928986542 a63.114770257199005,63.114770257199005 0 0,0 0.3973418917017294,1.0111917742289789 l -39.32834034949687 15.064379149861779" fill="#b4ff20" stroke="none" /><path d="M 119.61058180528143 92.48833698450437 l 41.876132518325285 -16.04028880903383 a65.84307460210056,65.84307460210056 0 0,0 0.39629821469765175,1.0618821883134761 l -42.14603532152456 15.317083483691018" fill="#7fff26" stroke="none" /><path d="M 119.97218684219823 93.5106431181261 l 53.73009133582466 -17.457964955402463 a77.49516134449145,77.49516134449145 0 0,0 0.40129399193864435,1.2722116179176772 l -54.02264081153151 16.530503171058367" fill="#3fffbd" stroke="none" /><path d="M 120.08093135843002 93.85539295169968 l 53.78692178261798 -16.458375002268397 a77.24865387335734,77.24865387335734 0 0,0 0.3781288606781139,1.2748625402806906 l -54.062256540407795 15.530083075241178" fill="#3effb8" stroke="none" /><path d="M 120.91429891909075 98.10471618934814 l 60.302938569128386 -5.464738916037818 a81.55004353006305,81.55004353006305 0 0,0 0.11465748236989448,1.3991117016658265 l -60.38807053531777 4.4259132971642225" fill="#48faff" stroke="none" /><path d="M 120.96714384426684 98.82574320788733 l 51.58170523358797 -2.8888134773709893 a72.66253534343622,72.66253534343622 0 0,0 0.05919018077772518,1.2494111655775502 l -51.62378902259918 2.000491205170439" fill="#34ff60" stroke="none" /><line stroke="#e1ed5e" stroke-width="0.3" x1="184.98032266829074" x2="189.97916517819016" y1="98.17113171792111" y2="98.06355123074" /><path d="M 185.9800911702706 98.14961562048488 a86.0,86.0 0 0,1 -9.607161424134198,41.387399972396054" fill="none" id="id28" stroke="none" /><text fill="#e1ed5e" style="font-size:6.75px; font-family:Arial;" text-anchor="middle"><textPath startOffset="21.466115282336823" xlink:href="#id28">April</textPath></text><path d="M 120.99513854157772 99.54816195383933 l 56.675644789824844 -1.2197210585687375 a77.68876812740876,77.68876812740876 0 0,0 0.017265377518288744,1.3372225159050586 l -56.688243174460844 0.24396228460321626" fill="#3fffc1" stroke="none" /><path d="M 120.9904718944345 100.63252640178507 l 62.97141568330351 1.8975792053552112 a84.0,84.0 0 0,0 -0.05599146859518722,1.4448910119439753 l -62.92942208185712 -2.9812474643131925" fill="#4dd2ff" stroke="none" /><path d="M 120.9764740272857 100.99374915477107 l 46.198060598620074 2.188608229019967 a67.24987361122089,67.24987361122089 0 0,0 -0.06473168323977248,1.1558276885313172 l -46.153542564492774 -2.9835076338867075" fill="#65ff29" stroke="none" /><path d="M 120.95626037817324 101.35467743843564 l 48.98232060131764 3.1663685888317117 a70.08455583511586,70.08455583511586 0 0,0 -0.0881845309354826,1.2032078616786333 l -48.92055951171782 -4.009049587007116" fill="#34ff2f" stroke="none" /><line stroke="#e1ed5e" stroke-width="0.3" x1="174.80103733775053" x2="179.2010983576182" y1="140.37084112569926" y2="142.7455964860345" /><path d="M 175.68104954172406 140.8457921977663 a86.0,86.0 0 0,1 -30.038265399797805,32.042727171017184" fill="none" id="id29" stroke="none" /><text fill="#e1ed5e" style="font-size:6.75px; font-family:Arial;" text-anchor="middle"><textPath startOffset="22.206326154141568" xlink:href="#id29">May</textPath></text><line stroke="#e1ed5e" stroke-width="0.3" x1="143.8653032363475" x2="146.44561519142675" y1="172.8068346515853" y2="177.08958963109032" /><path d="M 144.38136562736335 173.6633856474863 a86.0,86.0 0 0,1 -40.68145358897372,12.25698825130547" fill="none" id="id30" stroke="none" /><text fill="#e1ed5e" style="font-size:6.75px; font-family:Arial;" text-anchor="middle"><textPath startOffset="21.466115282336833" xlink:href="#id30">June</textPath></text><line stroke="#e1ed5e" stroke-width="0.3" x1="102.19456741930631" x2="102.32365962044197" y1="184.97166512339345" y2="189.96999836594603" /><path d="M 102.22038585953345 185.97133177190398 a86.0,86.0 0 0,1 -42.740103519485714,-10.115201625700543" fill="none" id="id31" stroke="none" /><text fill="#e1ed5e" style="font-size:6.75px; font-family:Arial;" text-anchor="middle"><textPath startOffset="22.20632615414155" xlink:href="#id31">July</textPath></text><path d="M 96.93821686468263 120.77559828337769 l -8.806900118416657 59.7588434241247 a81.40431157694638,81.40431157694638 0 0,0 -1.3845095544249164,-0.2162319185240792 l 9.834245536450089 -59.59839319825351" fill="#47fcff" stroke="none" /><path d="M 96.58105272829116 120.7198165907248 l -9.815911357219843 59.487282730380656 a81.29169861943717,81.29169861943717 0 0,0 -1.3786724797188898,-0.23969988252178615 l 10.838432808410783 -59.309504269337864" fill="#47feff" stroke="none" /><path d="M 94.46302465271185 120.25689768951611 l -15.836490803105704 57.937439457192575 a81.06281155434456,81.06281155434456 0 0,0 -1.3428202650269356,-0.3794944199656984 l 16.831442236237255 -57.65625624388836" fill="#47fffc" stroke="none" /><line stroke="#e1ed5e" stroke-width="0.3" x1="58.666819895761336" x2="56.23545636021788" y1="174.27360380694188" y2="178.64263932499728" /><path d="M 58.180547188652646 175.14741091055294 a86.0,86.0 0 0,1 -31.652253787137756,-30.449443065178592" fill="none" id="id32" stroke="none" /><text fill="#e1ed5e" style="font-size:6.75px; font-family:Arial;" text-anchor="middle"><textPath startOffset="22.20632615414155" xlink:href="#id32">August</textPath></text><line stroke="#e1ed5e" stroke-width="0.3" x1="26.63291911575756" x2="22.317208475507996" y1="142.92168965132927" y2="145.44649492493687" /><path d="M 25.769776987707644 143.4266507060508 a86.0,86.0 0 0,1 -11.730757126820373,-40.83630448921669" fill="none" id="id33" stroke="none" /><text fill="#e1ed5e" style="font-size:6.75px; font-family:Arial;" text-anchor="middle"><textPath startOffset="21.46611528233685" xlink:href="#id33">September</textPath></text><path d="M 79.0235259727143 100.99374915477108 l -62.54156824894507 2.9628730979573987 a83.61171117316675,83.61171117316675 0 0,0 -0.05573264881360727,-1.438212023421041 l 62.58330303060988 -1.8858838275223608" fill="#4cd8ff" stroke="none" /><line stroke="#e1ed5e" stroke-width="0.3" x1="15.007084014347285" x2="10.007500721073583" y1="101.09737516637583" y2="101.16192664675087" /><path d="M 14.007167355692545 101.11028546245083 a86.0,86.0 0 0,1 10.666146001902534,-42.60595125391555" fill="none" id="id34" stroke="none" /><text fill="#e1ed5e" style="font-size:6.75px; font-family:Arial;" text-anchor="middle"><textPath startOffset="22.20632615414155" xlink:href="#id34">October</textPath></text><path d="M 79.12142395522702 97.74499172005258 l -62.282206428776384 -6.726842428770267 a83.64442231115407,83.64442231115407 0 0,0 0.16692896248948566,-1.4301454088104528 l 62.157187113283314 7.797931575905581" fill="#4cd8ff" stroke="none" /><path d="M 79.16333360222342 97.38593545837743 l -61.884228598543764 -7.7636875581201465 a83.3693241404533,83.3693241404533 0 0,0 0.19089193621511003,-1.4223666511424011 l 61.741420663270816 8.827772551327207" fill="#4cdcff" stroke="none" /><path d="M 79.21141760316559 97.0276538004421 l -62.34873279396028 -8.914605884603223 a83.9828125689101,83.9828125689101 0 0,0 0.2169320302026223,-1.4293110359970018 l 62.186044870318355 9.986516032992316" fill="#4dd2ff" stroke="none" /><path d="M 79.32604984820605 96.31383870115002 l -61.67449823254858 -10.99655106264659 a83.64716966878896,83.64716966878896 0 0,0 0.26493956845278466,-1.4153177686442129 l 61.47607294018594 12.056546908753376" fill="#4cd8ff" stroke="none" /><path d="M 79.46518482838121 95.60439243477599 l -47.144269922184556 -10.091530300858363 a69.21225124705273,69.21225124705273 0 0,0 0.2593996505413464,-1.162837770216822 l 46.96357588464117 10.901546240625144" fill="#43ff2d" stroke="none" /><path d="M 80.2630227832202 92.82701384747504 l -42.69874405014611 -15.517953759480314 a66.4311526635772,66.4311526635772 0 0,0 0.39983775605828753,-1.0713663994107254 l 42.4253017055862 16.25064329592038" fill="#74ff27" stroke="none" /><path d="M 80.52162464483688 92.15188598940014 l -46.8125631272724 -18.86144639131069 a71.46949798162402,71.46949798162402 0 0,0 0.46958289383783974,-1.137132224409349 l 46.480958546548365 19.66445318617335" fill="#32ff47" stroke="none" /><path d="M 81.43458229118936 90.18545643968196 l -38.001322292783065 -20.089266982407043 a63.98463846411182,63.98463846411182 0 0,0 0.5231259142248684,-0.9692728700014521 l 37.64988827933973 20.740420835740967" fill="#a3ff22" stroke="none" /><line stroke="#e1ed5e" stroke-width="0.3" x1="26.266209847984243" x2="21.928928074336255" y1="57.711370442889674" y2="55.22380399835377" /><path d="M 25.398753493254645 57.213857153982495 a86.0,86.0 0 0,1 29.58750427330803,-30.492523968695096" fill="none" id="id35" stroke="none" /><text fill="#e1ed5e" style="font-size:6.75px; font-family:Arial;" text-anchor="middle"><textPath startOffset="21.46611528233685" xlink:href="#id35">November</textPath></text><path d="M 81.96595687620814 89.24020034530311 l -23.637210809327193 -14.102863731575699 a48.524688922419585,48.524688922419585 0 0,0 0.4341439257904027,-0.7136184635402308 l 23.390951085250574 14.507649968323005" fill="#ff0000" stroke="none" /><path d="M 82.34701348167596 88.62581576622439 l -36.545895691333875 -23.547276272493395 a64.47501249838793,64.47501249838793 0 0,0 0.6091456864295385,-0.9277706715155706 l 36.135153369546416 24.172865007986633" fill="#99ff23" stroke="none" /><path d="M 82.7489923806493 88.02491185347247 l -29.91848477443322 -20.768438591522937 a57.42037579059079,57.42037579059079 0 0,0 0.5706146568388193,-0.8070939654463173 l 29.556557497790525 21.28035905730104" fill="#ffd413" stroke="none" /><path d="M 82.95767976084542 87.72973835380427 l -29.35598678706605 -21.135950604425094 a57.1732272294731,57.1732272294731 0 0,0 0.5819074391519989,-0.7937210930426002 l 28.98781673540042 21.638134141139194" fill="#ffce13" stroke="none" /><path d="M 83.17141714833178 87.43820079747576 l -29.842834341904247 -22.276367293757822 a58.240183959867096,58.240183959867096 0 0,0 0.6065966417998508,-0.7982100761494947 l 29.454961759880288 22.786762145788344" fill="#ffe515" stroke="none" /><path d="M 83.39014120810768 87.1503855733568 l -26.447423340817313 -20.460089201576487 a54.43772497501699,54.43772497501699 0 0,0 0.5797511929719152,-0.736225140418903 l 26.091318067251425 20.912306735948437" fill="#ff900d" stroke="none" /><path d="M 83.84228863543731 86.58626213691792 l -33.52256308590247 -27.829614206324678 a64.56890706365239,64.56890706365239 0 0,0 0.7172971769850647,-0.8490536103741414 l 33.03855529543028 28.402526766327934" fill="#97ff23" stroke="none" /><line stroke="#e1ed5e" stroke-width="0.3" x1="56.762969772571076" x2="54.21961505331055" y1="26.818313649435495" y2="22.513508569990535" /><path d="M 56.25429882871897 25.957352633546506 a86.0,86.0 0 0,1 42.265352541879196,-11.944610805530505" fill="none" id="id36" stroke="none" /><text fill="#e1ed5e" style="font-size:6.75px; font-family:Arial;" text-anchor="middle"><textPath startOffset="22.20632615414155" xlink:href="#id36">December</textPath></text><path d="M 97.11714578562143 79.19881850522333 l -7.875229213072229 -56.82357136099395 a78.36669327559676,78.36669327559676 0 0,0 1.3377764435639876,-0.17368177681562122 l 6.895938041000384 56.95071146097371" fill="#41ffcd" stroke="none" /></svg>