<?xml version="1.0" encoding="utf-8" ?>
<svg baseProfile="full" height="200mm" version="1.1" viewBox="0,0,200,200" width="200mm" xmlns="http://www.w3.org/2000/svg" xmlns:ev="http://www.w3.org/2001/xml-events" xmlns:xlink="http://www.w3.org/1999/xlink"><defs /><rect fill="#1a1a1a" height="200" width="200" x="0" y="0" /><text alignment-baseline="middle" fill="#e1ed5e" style="dominant-baseline: central; font-size:9.0px; font-family:Arial;" text-anchor="middle" x="100.0" y="100.0">2020</text><line stroke="#e1ed5e" stroke-width="0.3" x1="100.0" x2="100.0" y1="15.0" y2="10.0" /><path d="M 100.0 14.0 a86.0,86.0 0 0,1 42.35913384403234,11.155469271406648" fill="none" id="id1" stroke="none" /><text fill="#e1ed5e" style="font-size:6.75px; font-family:Arial;" text-anchor="middle"><textPath startOffset="22.145653131862478" xlink:href="#id1">January</textPath></text><line stroke="#e1ed5e" stroke-width="0.3" x1="143.13028292997686" x2="145.6673583964461" y1="26.7553504044142" y2="22.446841604673864" /><path d="M 143.63769802327073 25.89364864446614 a86.0,86.0 0 0,1 29.32050498858742,28.57503671076993" fill="none" id="id2" stroke="none" /><text fill="#e1ed5e" style="font-size:6.75px; font-family:Arial;" text-anchor="middle"><textPath startOffset="20.669276256404974" xlink:href="#id2">February</textPath></text><path d="M 114.39649973595853 84.71141617570332 l 13.00889686614011 -13.814997662441968 a39.97592048062879,39.97592048062879 0 0,0 0.49556342876038334,0.47473855465416864 l -13.244132780765806 13.58964697748222" fill="#ff3e05" stroke="none" /><path d="M 115.6541949942343 86.00192230759917 l 33.28103161961272 -29.760103695282645 a65.64628582110316,65.64628582110316 0 0,0 0.7439566532206966,0.8464861051259535 l -33.786999336792 29.184405312345394" fill="#31ff2f" stroke="none" /><line stroke="#e1ed5e" stroke-width="0.3" x1="172.87174338648825" x2="177.1583165268699" y1="56.24261187166439" y2="53.66864786411523" /><path d="M 173.72905801456457 55.72781907015455 a86.0,86.0 0 0,1 12.242430191666344,42.057860355516425" fill="none" id="id3" stroke="none" /><text fill="#e1ed5e" style="font-size:6.75px; font-family:Arial;" text-anchor="middle"><textPath startOffset="22.145653131862474" xlink:href="#id3">March</textPath></text><path d="M 120.65975698304385 96.23510406497455 l 39.00305931992543 -7.107656668355892 a60.64539594491201,60.64539594491201 0 0,0 0.17785037035824375,1.0257936743296183 l -39.11932450777591 6.437069961105681" fill="#73ff27" stroke="none" /><path d="M 120.7213421655516 96.59031103205396 l 39.221345033926674 -6.453857399860427 a60.748788429435905,60.748788429435905 0 0,0 0.1604881969749202,1.030449351043409 l -39.326354723039856 5.779619866885576" fill="#72ff27" stroke="none" /><path d="M 120.77682067341334 96.94652285012252 l 38.78873211420517 -5.700607857438197 a60.20539081519093,60.20539081519093 0 0,0 0.14149838903171977,1.023811855689898 l -38.8808750197921 5.033907693548214" fill="#79ff26" stroke="none" /><path d="M 120.86939407059847 97.66154086499901 l 23.6991198985452 -2.6555358162656684 a44.84743496557,44.84743496557 0 0,0 0.07916129130989308,0.7658136840887496 l -23.74121358233676 2.2483176098939874" fill="#ff950d" stroke="none" /><path d="M 120.9064616781168 98.02013634271609 l 58.59425600234832 -5.548936963640664 a79.85641458579676,79.85641458579676 0 0,0 0.11752726091401283,1.3658449214886375 l -58.68087688596007 4.542270994776364" fill="#46fff9" stroke="none" /><path d="M 120.93736805541906 98.37931529534042 l 42.71506595644816 -3.30641625398675 a63.84284360436809,63.84284360436809 0 0,0 0.07520090755858388,1.0934046915713045 l -42.76553082517181 2.572668138261111" fill="#48ff2c" stroke="none" /><path d="M 120.96210409425399 98.7389718711861 l 37.19887619073382 -2.2377920186762066 a58.2661254086388,58.2661254086388 0 0,0 0.05149174648134958,0.9989261256075588 l -37.23180952667174 1.5988940996919172" fill="#94ff23" stroke="none" /><path d="M 120.98066250479742 99.09900007780936 l 43.88347528775659 -1.8845452478291704 a64.92392188912847,64.92392188912847 0 0,0 0.03825970737000703,1.1138896350753045 l -43.909359682123444 1.130949348189746" fill="#3aff2e" stroke="none" /><path d="M 120.99303781780057 99.45929381324524 l 15.803627091033194 -0.40704537454037104 a36.808868244418164,36.808868244418164 0 0,0 0.010847342805060558,0.6318033370661346 l -15.808285865436922 0.1356951215051701" fill="#ff0300" stroke="none" /><line stroke="#e1ed5e" stroke-width="0.3" x1="184.99686870605535" x2="189.99668451229388" y1="99.2704041080226" y2="99.22748670261217" /><path d="M 185.99683186730306 99.26182062694052 a86.0,86.0 0 0,1 -10.086455211305974,41.156179273409016" fill="none" id="id4" stroke="none" /><text fill="#e1ed5e" style="font-size:6.75px; font-family:Arial;" text-anchor="middle"><textPath startOffset="21.40746469413373" xlink:href="#id4">April</textPath></text><path d="M 120.99922638620191 99.81974689727618 l 62.99767915860572 -0.5407593081714844 a84.0,84.0 0 0,0 0.0,1.442024821790615 l -62.99767915860572 -0.5407593081714768" fill="#4dd2ff" stroke="none" /><path d="M 120.9064616781168 101.97986365728391 l 39.113959895939054 3.704132668776202 a60.28896101411978,60.28896101411978 0 0,0 -0.10641750212188227,1.029492798853524 l -39.044610001335506 -4.375029989912657" fill="#78ff26" stroke="none" /><path d="M 120.86939407059847 102.33845913500097 l 17.772480214107542 1.9914434778370238 a38.883704875843364,38.883704875843364 0 0,0 -0.08002250491566162,0.6627011352242108 l -17.735675622932217 -2.296238289984643" fill="#ff2a04" stroke="none" /><path d="M 120.26092885502905 105.52220625578681 l 37.74803168073956 10.288393892626377 a60.12499130555749,60.12499130555749 0 0,0 -0.27995772923143786,0.9934712170680455 l -37.565855459433536 -10.934873033597432" fill="#7aff26" stroke="none" /><path d="M 120.16314734710363 105.8691983318838 l 15.026342183773412 4.373949213438972 a36.64999652222299,36.64999652222299 0 0,0 -0.1810225005304354,0.6025650298883028 l -14.949043363239348 -4.631251846917998" fill="#ff0000" stroke="none" /><path d="M 120.05942366710727 106.21446072829308 l 30.44452284579603 9.431791000409353 a52.87205127982194,52.87205127982194 0 0,0 -0.2760305890239445,0.8646618886546653 l -30.27812754099483 -9.953021922755402" fill="#e5ff1a" stroke="none" /><path d="M 119.58574465831526 107.57618678355244 l 37.79786817447379 14.621027400575668 a61.52719186895736,61.52719186895736 0 0,0 -0.389500305365366,0.9817952099520704 l -37.5413091941423 -15.267723627741303" fill="#67ff28" stroke="none" /><line stroke="#e1ed5e" stroke-width="0.3" x1="174.33088141563837" x2="178.70328620479359" y1="141.23008692659167" y2="143.65538615756765" /><path d="M 175.20536237346943 141.71514677278685 a86.0,86.0 0 0,1 -30.301960400862466,31.631185727798858" fill="none" id="id5" stroke="none" /><text fill="#e1ed5e" style="font-size:6.75px; font-family:Arial;" text-anchor="middle"><textPath startOffset="22.145653131862474" xlink:href="#id5">May</textPath></text><line stroke="#e1ed5e" stroke-width="0.3" x1="143.1302829299769" x2="145.66735839644613" y1="173.24464959558577" y2="177.55315839532614" /><path d="M 143.63769802327073 174.10635135553383 a86.0,86.0 0 0,1 -40.68552437913181,11.842963189579606" fill="none" id="id6" stroke="none" /><text fill="#e1ed5e" style="font-size:6.75px; font-family:Arial;" text-anchor="middle"><textPath startOffset="21.407464694133747" xlink:href="#id6">June</textPath></text><line stroke="#e1ed5e" stroke-width="0.3" x1="101.45913802915013" x2="101.54496967792366" y1="184.9874750549273" y2="189.98673829345242" /><path d="M 101.47630435890484 185.9873277026323 a86.0,86.0 0 0,1 -42.54439059252881,-10.42667462771756" fill="none" id="id7" stroke="none" /><text fill="#e1ed5e" style="font-size:6.75px; font-family:Arial;" text-anchor="middle"><textPath startOffset="22.145653131862474" xlink:href="#id7">July</textPath></text><line stroke="#e1ed5e" stroke-width="0.3" x1="58.13341422392154" x2="55.67067388415222" y1="173.97424548756322" y2="178.32567169271397" /><path d="M 57.64086615596768 174.84453072859336 a86.0,86.0 0 0,1 -31.369924170532247,-30.572349798747897" fill="none" id="id8" stroke="none" /><text fill="#e1ed5e" style="font-size:6.75px; font-family:Arial;" text-anchor="middle"><textPath startOffset="22.145653131862474" xlink:href="#id8">August</textPath></text><line stroke="#e1ed5e" stroke-width="0.3" x1="26.387840678322732" x2="22.057713659400548" y1="142.50000000000003" y2="145.00000000000006" /><path d="M 25.521815274538298 143.00000000000003 a86.0,86.0 0 0,1 -11.493303480769221,-40.785679425670985" fill="none" id="id9" stroke="none" /><text fill="#e1ed5e" style="font-size:6.75px; font-family:Arial;" text-anchor="middle"><textPath startOffset="21.40746469413373" xlink:href="#id9">September</textPath></text><line stroke="#e1ed5e" stroke-width="0.3" x1="15.003131293944662" x2="10.003315487706104" y1="100.72959589197737" y2="100.7725132973878" /><path d="M 14.003168132696942 100.73817937305945 a86.0,86.0 0 0,1 10.791469493833604,-42.45332614584628" fill="none" id="id10" stroke="none" /><text fill="#e1ed5e" style="font-size:6.75px; font-family:Arial;" text-anchor="middle"><textPath startOffset="22.145653131862435" xlink:href="#id10">October</textPath></text><line stroke="#e1ed5e" stroke-width="0.3" x1="26.387840678322718" x2="22.05771365940052" y1="57.49999999999999" y2="54.99999999999999" /><path d="M 25.521815274538284 56.99999999999999 a86.0,86.0 0 0,1 29.574782752854787,-30.34633250058573" fill="none" id="id11" stroke="none" /><text fill="#e1ed5e" style="font-size:6.75px; font-family:Arial;" text-anchor="middle"><textPath startOffset="21.40746469413373" xlink:href="#id11">November</textPath></text><line stroke="#e1ed5e" stroke-width="0.3" x1="56.869717070023135" x2="54.33264160355391" y1="26.7553504044142" y2="22.446841604673864" /><path d="M 56.362301976729285 25.89364864446614 a86.0,86.0 0 0,1 42.16139366436587,-11.88097634709845" fill="none" id="id12" stroke="none" /><text fill="#e1ed5e" style="font-size:6.75px; font-family:Arial;" text-anchor="middle"><textPath startOffset="22.145653131862474" xlink:href="#id12">December</textPath></text></svg>